<?xml version="1.0" encoding="UTF-8" standalone="no"?>
<!DOCTYPE svg PUBLIC "-//W3C//DTD SVG 1.1//EN"
 "http://www.w3.org/Graphics/SVG/1.1/DTD/svg11.dtd">
<!-- Generated by graphviz version 2.47.3 (20210619.1520)
 -->
<!-- Title: dependencies Pages: 1 -->
<svg width="306pt" height="174pt"
 viewBox="0.00 0.00 306.00 173.80" xmlns="http://www.w3.org/2000/svg" xmlns:xlink="http://www.w3.org/1999/xlink">
<g id="graph0" class="graph" transform="scale(1 1) rotate(0) translate(4 169.8)">
<title>dependencies</title>
<polygon fill="white" stroke="transparent" points="-4,4 -4,-169.8 302,-169.8 302,4 -4,4"/>
<text text-anchor="middle" x="149" y="-8.2" font-family="sans-serif" font-size="14.00">dependencies</text>
<g id="clust1" class="cluster">
<title>cluster_ContactModule</title>
<polygon fill="none" stroke="black" stroke-dasharray="1,5" points="8,-32.8 8,-157.8 290,-157.8 290,-32.8 8,-32.8"/>
</g>
<g id="clust3" class="cluster">
<title>cluster_ContactModule_imports</title>
<polygon fill="none" stroke="black" points="180,-40.8 180,-92.8 282,-92.8 282,-40.8 180,-40.8"/>
</g>
<g id="clust6" class="cluster">
<title>cluster_ContactModule_providers</title>
<polygon fill="none" stroke="black" points="16,-40.8 16,-92.8 172,-92.8 172,-40.8 16,-40.8"/>
</g>
<!-- UserModule -->
<g id="node1" class="node">
<title>UserModule</title>
<polygon fill="#8dd3c7" stroke="black" points="273.98,-84.8 270.98,-88.8 249.98,-88.8 246.98,-84.8 188.02,-84.8 188.02,-48.8 273.98,-48.8 273.98,-84.8"/>
<text text-anchor="middle" x="231" y="-62.6" font-family="Times,serif" font-size="14.00">UserModule</text>
</g>
<!-- ContactModule -->
<g id="node2" class="node">
<title>ContactModule</title>
<polygon fill="#8dd3c7" stroke="black" points="213.6,-149.8 210.6,-153.8 189.6,-153.8 186.6,-149.8 110.4,-149.8 110.4,-113.8 213.6,-113.8 213.6,-149.8"/>
<text text-anchor="middle" x="162" y="-127.6" font-family="Times,serif" font-size="14.00">ContactModule</text>
</g>
<!-- UserModule&#45;&gt;ContactModule -->
<g id="edge1" class="edge">
<title>UserModule&#45;&gt;ContactModule</title>
<path fill="none" stroke="black" d="M200.78,-84.91C200.78,-84.91 200.78,-103.79 200.78,-103.79"/>
<polygon fill="black" stroke="black" points="197.28,-103.79 200.78,-113.79 204.28,-103.79 197.28,-103.79"/>
</g>
<!-- ContactService -->
<g id="node3" class="node">
<title>ContactService</title>
<ellipse fill="#fdb462" stroke="black" cx="94" cy="-66.8" rx="70.06" ry="18"/>
<text text-anchor="middle" x="94" y="-62.6" font-family="Times,serif" font-size="14.00">ContactService</text>
</g>
<!-- ContactService&#45;&gt;ContactModule -->
<g id="edge2" class="edge">
<title>ContactService&#45;&gt;ContactModule</title>
<path fill="none" stroke="black" d="M137.24,-81.23C137.24,-81.23 137.24,-103.69 137.24,-103.69"/>
<polygon fill="black" stroke="black" points="133.74,-103.69 137.24,-113.69 140.74,-103.69 133.74,-103.69"/>
</g>
</g>
</svg>
