<?xml version="1.0" encoding="UTF-8" standalone="no"?>
<!DOCTYPE svg PUBLIC "-//W3C//DTD SVG 1.1//EN"
 "http://www.w3.org/Graphics/SVG/1.1/DTD/svg11.dtd">
<!-- Generated by graphviz version 2.47.3 (20210619.1520)
 -->
<!-- Title: dependencies Pages: 1 -->
<svg width="492pt" height="318pt"
 viewBox="0.00 0.00 492.00 317.80" xmlns="http://www.w3.org/2000/svg" xmlns:xlink="http://www.w3.org/1999/xlink">
<g id="graph0" class="graph" transform="scale(1 1) rotate(0) translate(4 313.8)">
<title>dependencies</title>
<polygon fill="white" stroke="transparent" points="-4,4 -4,-313.8 488,-313.8 488,4 -4,4"/>
<text text-anchor="middle" x="242" y="-8.2" font-family="sans-serif" font-size="14.00">dependencies</text>
<g id="clust1" class="cluster">
<title>cluster_AppModule</title>
<polygon fill="none" stroke="black" stroke-dasharray="1,5" points="8,-108.8 8,-301.8 296,-301.8 296,-108.8 8,-108.8"/>
</g>
<g id="clust3" class="cluster">
<title>cluster_AppModule_imports</title>
<polygon fill="none" stroke="black" points="168,-116.8 168,-236.8 288,-236.8 288,-116.8 168,-116.8"/>
</g>
<g id="clust6" class="cluster">
<title>cluster_AppModule_providers</title>
<polygon fill="none" stroke="black" points="16,-184.8 16,-236.8 146,-236.8 146,-184.8 16,-184.8"/>
</g>
<g id="clust7" class="cluster">
<title>cluster_ContactModule</title>
<polygon fill="none" stroke="black" stroke-dasharray="1,5" points="304,-108.8 304,-176.8 476,-176.8 476,-108.8 304,-108.8"/>
</g>
<g id="clust12" class="cluster">
<title>cluster_ContactModule_providers</title>
<polygon fill="none" stroke="black" points="312,-116.8 312,-168.8 468,-168.8 468,-116.8 312,-116.8"/>
</g>
<g id="clust13" class="cluster">
<title>cluster_UserModule</title>
<polygon fill="none" stroke="black" stroke-dasharray="1,5" points="149,-32.8 149,-100.8 297,-100.8 297,-32.8 149,-32.8"/>
</g>
<g id="clust18" class="cluster">
<title>cluster_UserModule_providers</title>
<polygon fill="none" stroke="black" points="157,-40.8 157,-92.8 289,-92.8 289,-40.8 157,-40.8"/>
</g>
<!-- ContactModule -->
<g id="node1" class="node">
<title>ContactModule</title>
<polygon fill="#8dd3c7" stroke="black" points="279.6,-228.8 276.6,-232.8 255.6,-232.8 252.6,-228.8 176.4,-228.8 176.4,-192.8 279.6,-192.8 279.6,-228.8"/>
<text text-anchor="middle" x="228" y="-206.6" font-family="Times,serif" font-size="14.00">ContactModule</text>
</g>
<!-- AppModule -->
<g id="node3" class="node">
<title>AppModule</title>
<polygon fill="#8dd3c7" stroke="black" points="198.66,-293.8 195.66,-297.8 174.66,-297.8 171.66,-293.8 115.34,-293.8 115.34,-257.8 198.66,-257.8 198.66,-293.8"/>
<text text-anchor="middle" x="157" y="-271.6" font-family="Times,serif" font-size="14.00">AppModule</text>
</g>
<!-- ContactModule&#45;&gt;AppModule -->
<g id="edge1" class="edge">
<title>ContactModule&#45;&gt;AppModule</title>
<path fill="none" stroke="black" d="M187.64,-228.91C187.64,-228.91 187.64,-247.79 187.64,-247.79"/>
<polygon fill="black" stroke="black" points="184.14,-247.79 187.64,-257.79 191.14,-247.79 184.14,-247.79"/>
</g>
<!-- UserModule -->
<g id="node2" class="node">
<title>UserModule</title>
<polygon fill="#8dd3c7" stroke="black" points="265.98,-160.8 262.98,-164.8 241.98,-164.8 238.98,-160.8 180.02,-160.8 180.02,-124.8 265.98,-124.8 265.98,-160.8"/>
<text text-anchor="middle" x="223" y="-138.6" font-family="Times,serif" font-size="14.00">UserModule</text>
</g>
<!-- UserModule&#45;&gt;ContactModule -->
<g id="edge4" class="edge">
<title>UserModule&#45;&gt;ContactModule</title>
<path fill="none" stroke="black" d="M223,-161.02C223,-161.02 223,-182.53 223,-182.53"/>
<polygon fill="black" stroke="black" points="219.5,-182.53 223,-192.53 226.5,-182.53 219.5,-182.53"/>
</g>
<!-- UserModule&#45;&gt;AppModule -->
<g id="edge2" class="edge">
<title>UserModule&#45;&gt;AppModule</title>
<path fill="none" stroke="black" d="M179.74,-142.8C174.31,-142.8 170.62,-142.8 170.62,-142.8 170.62,-142.8 170.62,-247.59 170.62,-247.59"/>
<polygon fill="black" stroke="black" points="167.12,-247.59 170.62,-257.59 174.12,-247.59 167.12,-247.59"/>
</g>
<!-- AppService -->
<g id="node4" class="node">
<title>AppService</title>
<ellipse fill="#fdb462" stroke="black" cx="81" cy="-210.8" rx="56.74" ry="18"/>
<text text-anchor="middle" x="81" y="-206.6" font-family="Times,serif" font-size="14.00">AppService</text>
</g>
<!-- AppService&#45;&gt;AppModule -->
<g id="edge3" class="edge">
<title>AppService&#45;&gt;AppModule</title>
<path fill="none" stroke="black" d="M126.4,-221.83C126.4,-221.83 126.4,-247.58 126.4,-247.58"/>
<polygon fill="black" stroke="black" points="122.9,-247.58 126.4,-257.58 129.9,-247.58 122.9,-247.58"/>
</g>
<!-- ContactService -->
<g id="node5" class="node">
<title>ContactService</title>
<ellipse fill="#fdb462" stroke="black" cx="390" cy="-142.8" rx="70.06" ry="18"/>
<text text-anchor="middle" x="390" y="-138.6" font-family="Times,serif" font-size="14.00">ContactService</text>
</g>
<!-- ContactService&#45;&gt;ContactModule -->
<g id="edge5" class="edge">
<title>ContactService&#45;&gt;ContactModule</title>
<path fill="none" stroke="black" d="M319.78,-142.8C294.81,-142.8 272.77,-142.8 272.77,-142.8 272.77,-142.8 272.77,-182.58 272.77,-182.58"/>
<polygon fill="black" stroke="black" points="269.27,-182.58 272.77,-192.58 276.27,-182.58 269.27,-182.58"/>
</g>
<!-- UserService -->
<g id="node6" class="node">
<title>UserService</title>
<ellipse fill="#fdb462" stroke="black" cx="223" cy="-66.8" rx="58.44" ry="18"/>
<text text-anchor="middle" x="223" y="-62.6" font-family="Times,serif" font-size="14.00">UserService</text>
</g>
<!-- UserService&#45;&gt;UserModule -->
<g id="edge6" class="edge">
<title>UserService&#45;&gt;UserModule</title>
<path fill="none" stroke="black" d="M223,-84.81C223,-84.81 223,-114.65 223,-114.65"/>
<polygon fill="black" stroke="black" points="219.5,-114.65 223,-124.65 226.5,-114.65 219.5,-114.65"/>
</g>
</g>
</svg>
